<?xml version="1.0" standalone="no"?>
<!DOCTYPE svg PUBLIC "-//W3C//DTD SVG 20010904//EN"
 "http://www.w3.org/TR/2001/REC-SVG-20010904/DTD/svg10.dtd">
<svg version="1.0" xmlns="http://www.w3.org/2000/svg"
 width="500.000000pt" height="500.000000pt" viewBox="0 0 500.000000 500.000000"
 preserveAspectRatio="xMidYMid meet">

<g transform="translate(0.000000,500.000000) scale(0.100000,-0.100000)"
fill="#000000" stroke="none">
<path d="M940 2721 l0 -281 60 0 60 0 2 168 3 167 65 -95 65 -95 45 0 44 0 66
94 65 94 5 -164 5 -164 58 -3 57 -3 0 281 0 280 -49 0 -49 0 -98 -144 c-63
-92 -103 -141 -109 -135 -5 5 -50 69 -101 142 l-91 132 -52 3 -51 3 0 -280z"/>
<path d="M1852 2723 l3 -278 58 -3 57 -3 0 281 0 280 -60 0 -60 0 2 -277z"/>
<path d="M2280 2720 l0 -281 58 3 57 3 3 88 3 88 42 -3 c41 -3 43 -5 93 -88
l50 -85 67 -3 c37 -2 67 1 67 5 0 4 -23 47 -51 96 l-52 89 33 26 c100 78 90
246 -18 310 -45 26 -54 27 -199 30 l-153 4 0 -282z m274 159 c35 -16 52 -69
34 -106 -18 -38 -53 -53 -125 -53 l-63 0 0 85 0 85 65 0 c35 0 75 -5 89 -11z"/>
<path d="M2780 2885 l0 -95 525 0 525 0 0 95 0 95 -525 0 -525 0 0 -95z"/>
<path d="M2860 2340 l0 -280 60 0 60 0 0 280 0 280 -60 0 -60 0 0 -280z"/>
<path d="M3250 2560 l0 -60 85 0 85 0 2 -217 3 -218 60 0 60 0 -3 164 c-2 91
-1 189 3 218 l6 53 85 0 84 0 0 60 0 60 -235 0 -235 0 0 -60z"/>
<path d="M900 2150 l0 -90 905 0 905 0 0 90 0 90 -905 0 -905 0 0 -90z"/>
</g>
</svg>
